<?xml version="1.0" encoding="utf-8"?>
<!-- Generator: Adobe Illustrator 19.0.0, SVG Export Plug-In . SVG Version: 6.00 Build 0)  -->
<svg version="1.1" id="Ebene_1" xmlns="http://www.w3.org/2000/svg" xmlns:xlink="http://www.w3.org/1999/xlink" x="0px" y="0px"
	 viewBox="-184 310.3 241.8 172.7" style="enable-background:new -184 310.3 241.8 172.7;" xml:space="preserve">
<style type="text/css">
	.st0{fill:#3C3C3B;stroke:#3C3C3B;stroke-miterlimit:10;}
	.st1{fill:#FFFFFF;stroke:#3C3C3B;stroke-miterlimit:10;}
	.st2{fill:#3C3C3B;}
	.st3{fill:none;stroke:#3C3C3B;stroke-miterlimit:10;}
</style>
<path id="XMLID_1_" class="st0" d="M50.1,450.7h-226.4c-4.3,0-7.7-3.5-7.7-7.7V318c0-4.3,3.5-7.7,7.7-7.7H50.1
	c4.3,0,7.7,3.5,7.7,7.7v125C57.8,447.3,54.3,450.7,50.1,450.7z"/>
<rect id="XMLID_3_" x="-90.9" y="454.2" class="st0" width="55.6" height="19.4"/>
<g id="XMLID_8_">
	<rect id="XMLID_4_" x="-173.7" y="321" class="st1" width="221.1" height="119"/>
	<path id="XMLID_6_" class="st1" d="M38.2,447.7h-2.6c-1.6,0-2.9-1.3-2.9-2.9l0,0c0-1.6,1.3-2.9,2.9-2.9h2.6c1.6,0,2.9,1.3,2.9,2.9
		l0,0C41.1,446.4,39.8,447.7,38.2,447.7z"/>
</g>
<g id="XMLID_10_">
	<g id="XMLID_14_">
		<g id="XMLID_72_">
			<path id="XMLID_73_" class="st2" d="M8.7,470.2h-143.6c-3.5,0-6.4,2.9-6.4,6.4s2.9,6.4,6.4,6.4H8.7c3.5,0,6.4-2.9,6.4-6.4
				S12.2,470.2,8.7,470.2z"/>
		</g>
		<g id="XMLID_56_">
			<path id="XMLID_67_" class="st3" d="M8.7,470.2h-143.6c-3.5,0-6.4,2.9-6.4,6.4s2.9,6.4,6.4,6.4H8.7c3.5,0,6.4-2.9,6.4-6.4
				S12.2,470.2,8.7,470.2z"/>
		</g>
	</g>
	<g id="XMLID_26_">
		<path id="XMLID_39_" class="st2" d="M-138.1,473.3h150c1.8,0,3.2,3,3.2,4.8l0,0c0,1.8-1.4,4.8-3.2,4.8h-150c-1.8,0-3.2-3-3.2-4.8
			l0,0C-141.3,476.4-139.9,473.3-138.1,473.3z"/>
		<path id="XMLID_38_" class="st3" d="M-138.1,473.3h150c1.8,0,3.2,3,3.2,4.8l0,0c0,1.8-1.4,4.8-3.2,4.8h-150c-1.8,0-3.2-3-3.2-4.8
			l0,0C-141.3,476.4-139.9,473.3-138.1,473.3z"/>
	</g>
	<g id="XMLID_13_">
		<g id="XMLID_69_">
			<rect id="XMLID_70_" x="-141.3" y="476.5" class="st2" width="156.4" height="6.4"/>
		</g>
		<g id="XMLID_63_">
			<rect id="XMLID_66_" x="-141.3" y="476.5" class="st3" width="156.4" height="6.4"/>
		</g>
	</g>
</g>
<g id="XMLID_2_">
	<g id="XMLID_21_">
		<path id="XMLID_25_" class="st3" d="M0.3,498.7"/>
	</g>
</g>
<g>
	<g id="x">
		<g>
			<polygon class="st2" points="-27.1,402.1 -48.7,380.5 -27.1,358.9 -41.5,344.5 -63.1,366.1 -84.7,344.5 -99.1,358.9 -77.5,380.5 
				-99.1,402.1 -84.7,416.5 -63.1,394.9 -41.5,416.5 			"/>
		</g>
	</g>
</g>
</svg>
